<svg width="52" height="52" viewBox="0 0 52 52" fill="none" xmlns="http://www.w3.org/2000/svg">
<rect width="52" height="52" fill="white"/>
<path d="M51.1613 5.87096V10.9032H10.9032V5.87096C10.9032 4.94838 11.658 4.19354 12.5806 4.19354H15.9355V6.70967C15.9355 7.17096 16.3129 7.54838 16.7742 7.54838H18.4516C18.9129 7.54838 19.2903 7.17096 19.2903 6.70967V4.19354H22.6451V6.70967C22.6451 7.17096 23.0226 7.54838 23.4838 7.54838H25.1613C25.6226 7.54838 26 7.17096 26 6.70967V4.19354H36.0645V6.70967C36.0645 7.17096 36.4419 7.54838 36.9032 7.54838H38.5806C39.0419 7.54838 39.4193 7.17096 39.4193 6.70967V4.19354H42.7742V6.70967C42.7742 7.17096 43.1516 7.54838 43.6129 7.54838H45.2903C45.7516 7.54838 46.129 7.17096 46.129 6.70967V4.19354H49.4838C50.4064 4.19354 51.1613 4.94838 51.1613 5.87096Z" fill="#41B7E9"/>
<path d="M49.4838 3.35484H46.9677V2.51613C46.9677 1.1289 45.8388 0 44.4516 0C43.0644 0 41.9355 1.1289 41.9355 2.51613V3.35484H40.258V2.51613C40.258 1.1289 39.1291 0 37.7419 0C36.3547 0 35.2258 1.1289 35.2258 2.51613V3.35484H26.8387V2.51613C26.8387 1.1289 25.7098 0 24.3226 0C22.9353 0 21.8064 1.1289 21.8064 2.51613V3.35484H20.129V2.51613C20.129 1.1289 19.0001 0 17.6129 0C16.2257 0 15.0968 1.1289 15.0968 2.51613V3.35484H12.5806C11.1934 3.35484 10.0645 4.48374 10.0645 5.87097V21.8065H6.70966V26.8387H8.38708V29.4974H10.0645V26.8387H13.4193V29.4974H15.0968V26.8387H16.7742V21.8065H11.7419V5.87097C11.7419 5.408 12.1185 5.03226 12.5806 5.03226H15.0968V6.70968C15.0968 7.63477 15.8491 8.3871 16.7742 8.3871H18.4516C19.3767 8.3871 20.129 7.63477 20.129 6.70968V5.03226H21.8064V6.70968C21.8064 7.63477 22.5588 8.3871 23.4838 8.3871H25.1613C26.0864 8.3871 26.8387 7.63477 26.8387 6.70968V5.03226H35.2258V6.70968C35.2258 7.63477 35.9781 8.3871 36.9032 8.3871H38.5806C39.5057 8.3871 40.258 7.63477 40.258 6.70968V5.03226H41.9355V6.70968C41.9355 7.63477 42.6878 8.3871 43.6129 8.3871H45.2903C46.2154 8.3871 46.9677 7.63477 46.9677 6.70968V5.03226H49.4838C49.946 5.03226 50.3226 5.408 50.3226 5.87097V36.0645C50.3226 36.5275 49.946 36.9032 49.4838 36.9032H22.3533V38.5806H49.4838C50.8711 38.5806 52 37.4517 52 36.0645V5.87097C52 4.48374 50.8711 3.35484 49.4838 3.35484ZM15.0968 23.4839V25.1613H8.38708V23.4839H15.0968ZM16.7742 6.70968V2.51613C16.7742 2.05316 17.1508 1.67742 17.6129 1.67742C18.075 1.67742 18.4516 2.05316 18.4516 2.51613L18.4524 6.70968H16.7742ZM23.4838 6.70968V2.51613C23.4838 2.05316 23.8604 1.67742 24.3226 1.67742C24.7847 1.67742 25.1613 2.05316 25.1613 2.51613L25.1621 6.70968H23.4838ZM36.9032 6.70968V2.51613C36.9032 2.05316 37.2798 1.67742 37.7419 1.67742C38.204 1.67742 38.5806 2.05316 38.5806 2.51613L38.5815 6.70968H36.9032ZM43.6129 6.70968V2.51613C43.6129 2.05316 43.9895 1.67742 44.4516 1.67742C44.9137 1.67742 45.2903 2.05316 45.2903 2.51613L45.2911 6.70968H43.6129Z" fill="#1F2428"/>
<path d="M46.9678 35.2258H20.9678V33.5484H45.2903V15.0968H16.7742V20.0753H15.0968V13.4193H46.9678V35.2258Z" fill="#1F2428"/>
<path d="M31.0323 23.4839C30.1072 23.4839 29.3548 22.7316 29.3548 21.8065C29.3548 20.8814 30.1072 20.129 31.0323 20.129C31.9574 20.129 32.7097 20.8814 32.7097 21.8065H34.3871C34.3871 20.2473 33.3136 18.9456 31.871 18.5707V16.7742H30.1936V18.5707C28.751 18.9456 27.6774 20.2473 27.6774 21.8065C27.6774 23.6567 29.1821 25.1613 31.0323 25.1613C31.9574 25.1613 32.7097 25.9136 32.7097 26.8387C32.7097 27.7638 31.9574 28.5161 31.0323 28.5161C30.1072 28.5161 29.3548 27.7638 29.3548 26.8387H27.6774C27.6774 28.3979 28.751 29.6996 30.1936 30.0745V31.871H31.871V30.0745C33.3136 29.6996 34.3871 28.3979 34.3871 26.8387C34.3871 24.9885 32.8825 23.4839 31.0323 23.4839Z" fill="#1F2428"/>
<path d="M11.7419 28.5161C5.25703 28.5161 0 33.7731 0 40.258C0 46.743 5.25703 52 11.7419 52C18.2268 52 23.4839 46.743 23.4839 40.258C23.4839 33.7731 18.2268 28.5161 11.7419 28.5161ZM11.7419 47.8064C7.57271 47.8064 4.19355 44.4273 4.19355 40.258C4.19355 36.0888 7.57271 32.7097 11.7419 32.7097C15.9112 32.7097 19.2903 36.0888 19.2903 40.258C19.2903 44.4273 15.9112 47.8064 11.7419 47.8064Z" fill="#41B7E9"/>
<path d="M11.742 48.6452C7.11731 48.6452 3.35486 44.8827 3.35486 40.2581C3.35486 35.6334 7.11731 31.871 11.742 31.871C16.3666 31.871 20.1291 35.6334 20.1291 40.2581C20.1291 44.8827 16.3666 48.6452 11.742 48.6452ZM11.742 33.5484C8.04241 33.5484 5.03228 36.5585 5.03228 40.2581C5.03228 43.9576 8.04241 46.9677 11.742 46.9677C15.4415 46.9677 18.4516 43.9576 18.4516 40.2581C18.4516 36.5585 15.4415 33.5484 11.742 33.5484Z" fill="#1F2428"/>
<path d="M10.6575 42.5284L9.47156 41.3425L10.9032 39.9108V35.2258H12.5807V40.6053L10.6575 42.5284Z" fill="#1F2428"/>
</svg>
