<svg width="52" height="52" viewBox="0 0 52 52" fill="none" xmlns="http://www.w3.org/2000/svg">
<rect width="52" height="52" fill="white"/>
<path d="M20.9677 52C9.40613 52 0 42.5939 0 31.0323C0 19.4706 9.40613 10.0645 20.9677 10.0645C32.5294 10.0645 41.9355 19.4706 41.9355 31.0323C41.9355 42.5939 32.5294 52 20.9677 52ZM20.9677 14.2581C11.7185 14.2581 4.19355 21.783 4.19355 31.0323C4.19355 40.2815 11.7185 47.8064 20.9677 47.8064C30.217 47.8064 37.7419 40.2815 37.7419 31.0323C37.7419 21.783 30.217 14.2581 20.9677 14.2581Z" fill="#41B7E9"/>
<path d="M50.3226 0H33.5484C32.6233 0 31.871 0.752322 31.871 1.67742V4.12897C26.2214 2.68723 20.0074 3.3171 14.7219 5.95903L15.4901 7.45026C20.5216 4.93581 26.4965 4.38645 31.871 5.87013V13.1292C32.4488 13.4823 33.0091 13.863 33.5484 14.269V1.67742H38.5807V5.03226C38.5807 5.95735 39.333 6.70968 40.2581 6.70968H43.6129C44.538 6.70968 45.2903 5.95735 45.2903 5.03226V1.67742H50.3226V18.4516H37.7302C38.1361 18.9909 38.5169 19.5512 38.87 20.129H47.2714C48.1797 22.6284 48.6452 25.2527 48.6452 27.9416C48.6452 35.5747 45.9647 42.9872 41.0968 48.8599V43.6129H39.4194V52H46.9678V50.3226H42.0663L42.1687 50.201C47.4265 43.9878 50.3226 36.0821 50.3226 27.9416C50.3226 25.2603 49.8957 22.6385 49.0536 20.129H50.3226C51.2477 20.129 52 19.3767 52 18.4516V1.67742C52 0.752322 51.2477 0 50.3226 0ZM43.6129 5.03226H40.2581V1.67742H43.6129V5.03226Z" fill="#1F2428"/>
<path d="M20.9677 13.4193C11.2563 13.4193 3.35484 21.3208 3.35484 31.0322C3.35484 40.7437 11.2563 48.6451 20.9677 48.6451C30.6792 48.6451 38.5807 40.7437 38.5807 31.0322C38.5807 21.3208 30.6792 13.4193 20.9677 13.4193ZM36.8605 31.871C36.6634 35.6317 35.1629 39.0444 32.7952 41.6738L30.4561 39.3346L29.2701 40.5206L31.6093 42.8597C28.9799 45.2282 25.5672 46.7279 21.8065 46.925V43.6129H20.129V46.925C16.3683 46.7279 12.9556 45.2274 10.3262 42.8597L12.6654 40.5206L11.4794 39.3346L9.14026 41.6738C6.77175 39.0444 5.27213 35.6317 5.07504 31.871H8.3871V30.1935H5.07504C5.27213 26.4328 6.77259 23.0201 9.14026 20.3907L11.4794 22.7299L12.6654 21.5439L10.3262 19.2048C12.9556 16.8362 16.3683 15.3366 20.129 15.1395V18.4516H21.8065V15.1395C25.5672 15.3366 28.9799 16.8371 31.6093 19.2048L29.2701 21.5439L30.4561 22.7299L32.7952 20.3907C35.1637 23.0201 36.6634 26.4328 36.8605 30.1935H33.5484V31.871H36.8605Z" fill="#1F2428"/>
<path d="M25.1613 18.4516H26.8387V20.129H25.1613V18.4516Z" fill="#1F2428"/>
<path d="M25.1613 41.9355H26.8387V43.6129H25.1613V41.9355Z" fill="#1F2428"/>
<path d="M31.871 25.1613H33.5484V26.8387H31.871V25.1613Z" fill="#1F2428"/>
<path d="M31.871 35.2258H33.5484V36.9032H31.871V35.2258Z" fill="#1F2428"/>
<path d="M15.0968 18.4516H16.7742V20.129H15.0968V18.4516Z" fill="#1F2428"/>
<path d="M15.0968 41.9355H16.7742V43.6129H15.0968V41.9355Z" fill="#1F2428"/>
<path d="M8.3871 25.1613H10.0645V26.8387H8.3871V25.1613Z" fill="#1F2428"/>
<path d="M8.3871 35.2258H10.0645V36.9032H8.3871V35.2258Z" fill="#1F2428"/>
<path d="M28.673 18.803L22.6695 27.2077C22.1478 26.9746 21.575 26.8387 20.9677 26.8387C20.1148 26.8387 19.3222 27.0979 18.6588 27.5374L14.0123 22.8909L12.8264 24.0768L17.4728 28.7233C17.0334 29.3867 16.7742 30.1793 16.7742 31.0323C16.7742 32.7348 17.7983 34.1967 19.2593 34.8534L18.4717 38.3987L20.1097 38.7627L20.8973 35.2191C20.9208 35.2191 20.9434 35.2258 20.9677 35.2258C23.2801 35.2258 25.1613 33.3446 25.1613 31.0323C25.1613 29.9319 24.726 28.9363 24.0299 28.1874L30.0367 19.7776L28.673 18.803ZM20.9677 33.5484C19.5805 33.5484 18.4516 32.4195 18.4516 31.0323C18.4516 29.645 19.5805 28.5161 20.9677 28.5161C22.355 28.5161 23.4839 29.645 23.4839 31.0323C23.4839 32.4195 22.355 33.5484 20.9677 33.5484Z" fill="#1F2428"/>
<path d="M40.2581 15.0968H41.9355V16.7742H40.2581V15.0968Z" fill="#1F2428"/>
<path d="M43.6129 15.0968H45.2903V16.7742H43.6129V15.0968Z" fill="#1F2428"/>
<path d="M46.9677 15.0968H48.6452V16.7742H46.9677V15.0968Z" fill="#1F2428"/>
<path d="M5.03226 14.2581C5.03226 12.8708 3.90335 11.7419 2.51613 11.7419C1.1289 11.7419 0 12.8708 0 14.2581C0 15.6453 1.1289 16.7742 2.51613 16.7742C3.90335 16.7742 5.03226 15.6453 5.03226 14.2581ZM2.51613 15.0968C2.05316 15.0968 1.67742 14.721 1.67742 14.2581C1.67742 13.7951 2.05316 13.4194 2.51613 13.4194C2.9791 13.4194 3.35484 13.7951 3.35484 14.2581C3.35484 14.721 2.9791 15.0968 2.51613 15.0968Z" fill="#1F2428"/>
<path d="M7.54839 11.7419C8.93561 11.7419 10.0645 10.613 10.0645 9.22582C10.0645 7.83859 8.93561 6.70969 7.54839 6.70969C6.16116 6.70969 5.03226 7.83859 5.03226 9.22582C5.03226 10.613 6.16116 11.7419 7.54839 11.7419ZM7.54839 8.38711C8.01135 8.38711 8.3871 8.76285 8.3871 9.22582C8.3871 9.68878 8.01135 10.0645 7.54839 10.0645C7.08542 10.0645 6.70968 9.68878 6.70968 9.22582C6.70968 8.76285 7.08542 8.38711 7.54839 8.38711Z" fill="#1F2428"/>
<path d="M11.7419 6.70969H13.4194V8.38711H11.7419V6.70969Z" fill="#1F2428"/>
</svg>
