<svg width="52" height="52" viewBox="0 0 52 52" fill="none" xmlns="http://www.w3.org/2000/svg">
<rect width="52" height="52" fill="white"/>
<path d="M35.2258 29.3548H48.6452V33.5484H35.2258V29.3548Z" fill="#41B7E9"/>
<path d="M3.35484 15.0968H16.7742V19.2903H3.35484V15.0968Z" fill="#41B7E9"/>
<path d="M13.4194 30.1935H28.5161V34.3871H13.4194V30.1935Z" fill="#41B7E9"/>
<path d="M42.7742 21.8064C37.6874 21.8064 33.5484 17.6674 33.5484 12.5806C33.5484 7.49386 37.6874 3.35483 42.7742 3.35483C47.861 3.35483 52 7.49386 52 12.5806C52 17.6674 47.861 21.8064 42.7742 21.8064Z" fill="#41B7E9"/>
<path d="M25.1613 3.35483H30.1935V5.03225H25.1613V3.35483Z" fill="#1F2428"/>
<path d="M21.8065 3.35483H23.4839V5.03225H21.8065V3.35483Z" fill="#1F2428"/>
<path d="M16.7742 38.5807C15.8491 38.5807 15.0968 39.333 15.0968 40.2581V41.9355C15.0968 42.8606 15.8491 43.6129 16.7742 43.6129H17.2657C17.7135 43.6129 18.1346 43.4385 18.4516 43.1214L20.4763 41.0968L18.4516 39.0721C18.1346 38.7551 17.7135 38.5807 17.2657 38.5807H16.7742ZM17.2657 41.9355H16.7742V40.2581H17.2657L18.1044 41.0968L17.2657 41.9355Z" fill="#1F2428"/>
<path d="M25.1613 38.5807C24.2362 38.5807 23.4839 39.333 23.4839 40.2581V41.9355C23.4839 42.8606 24.2362 43.6129 25.1613 43.6129H26.8387C27.7638 43.6129 28.5161 42.8606 28.5161 41.9355V40.2581C28.5161 39.333 27.7638 38.5807 26.8387 38.5807H25.1613ZM25.1613 41.9355V40.2581H26.8387L26.8395 41.9355H25.1613Z" fill="#1F2428"/>
<path d="M35.2258 43.6129C36.1509 43.6129 36.9032 42.8606 36.9032 41.9355V40.2581C36.9032 39.333 36.1509 38.5807 35.2258 38.5807H34.7343C34.2865 38.5807 33.8654 38.7551 33.5484 39.0721L31.5237 41.0968L33.5484 43.1214C33.8654 43.4385 34.2865 43.6129 34.7343 43.6129H35.2258ZM34.7343 40.2581H35.2258L35.2266 41.9355H34.7343L33.8956 41.0968L34.7343 40.2581Z" fill="#1F2428"/>
<path d="M42.7742 18.4516C44.6244 18.4516 46.129 16.947 46.129 15.0968V13.4193H39.4193V15.0968C39.4193 16.947 40.924 18.4516 42.7742 18.4516ZM44.4516 15.0968C44.4516 16.0219 43.6993 16.7742 42.7742 16.7742C41.8491 16.7742 41.0968 16.0219 41.0968 15.0968H44.4516Z" fill="#1F2428"/>
<path d="M46.129 10.9032C46.5912 10.9032 46.9678 11.279 46.9678 11.7419H48.6452C48.6452 10.3547 47.5163 9.2258 46.129 9.2258C44.7418 9.2258 43.6129 10.3547 43.6129 11.7419H45.2903C45.2903 11.279 45.6669 10.9032 46.129 10.9032Z" fill="#1F2428"/>
<path d="M40.2581 11.7419H41.9355C41.9355 10.3547 40.8066 9.2258 39.4194 9.2258C38.0321 9.2258 36.9032 10.3547 36.9032 11.7419H38.5806C38.5806 11.279 38.9572 10.9032 39.4194 10.9032C39.8815 10.9032 40.2581 11.279 40.2581 11.7419Z" fill="#1F2428"/>
<path d="M46.9677 31.871H48.6452V33.5484H46.9677V31.871Z" fill="#1F2428"/>
<path d="M35.2258 31.871H45.2903V33.5484H35.2258V31.871Z" fill="#1F2428"/>
<path d="M35.2258 28.5161H48.6452V30.1935H35.2258V28.5161Z" fill="#1F2428"/>
<path d="M49.4839 25.1613H43.836L41.9355 24.0752V21.7637C41.3585 21.7117 40.799 21.6026 40.2581 21.4483V23.1165L38.4641 22.0916C38.1386 21.9046 37.7663 21.8065 37.3897 21.8065C36.1962 21.8065 35.2258 22.7768 35.2258 23.9703V25.1613H34.3871C32.9999 25.1613 31.871 26.2902 31.871 27.6774V34.3871C31.871 35.7743 32.9999 36.9032 34.3871 36.9032H40.2581V42.7742C40.2581 44.1614 39.1292 45.2903 37.7419 45.2903H14.2581C12.8708 45.2903 11.7419 44.1614 11.7419 42.7742V25.5286L13.5359 26.5535C13.8614 26.7406 14.2337 26.8387 14.6103 26.8387C15.8038 26.8387 16.7742 25.8683 16.7742 24.6748V23.4839H17.6129C19.0001 23.4839 20.129 22.355 20.129 20.9677V14.2581C20.129 12.8708 19.0001 11.7419 17.6129 11.7419H11.7419V8.3871H34.5666C34.8735 7.78826 35.2375 7.22381 35.6628 6.70968H11.7419V4.19355C11.7419 2.80632 12.8708 1.67742 14.2581 1.67742H37.7419C38.969 1.67742 39.9897 2.56142 40.2103 3.72471C40.7412 3.57039 41.2897 3.458 41.855 3.40181C41.4834 1.4669 39.7825 0 37.7419 0H14.2581C11.9457 0 10.0645 1.88123 10.0645 4.19355V11.7419H2.51613C1.1289 11.7419 0 12.8708 0 14.2581V20.9677C0 22.355 1.1289 23.4839 2.51613 23.4839H8.164L10.0645 24.57V47.8064C10.0645 50.1188 11.9457 52 14.2581 52H37.7419C40.0543 52 41.9355 50.1188 41.9355 47.8064V36.9032H49.4839C50.8711 36.9032 52 35.7743 52 34.3871V27.6774C52 26.2902 50.8711 25.1613 49.4839 25.1613ZM8.61019 21.8065H2.51613C2.054 21.8065 1.67742 21.4307 1.67742 20.9677V14.2581C1.67742 13.7951 2.054 13.4194 2.51613 13.4194H17.6129C18.075 13.4194 18.4516 13.7951 18.4516 14.2581V20.9677C18.4516 21.4307 18.075 21.8065 17.6129 21.8065H15.0968V24.6748C15.0968 25.0279 14.6741 25.2712 14.3688 25.0975L8.61019 21.8065ZM40.2581 47.8064C40.2581 49.1937 39.1292 50.3226 37.7419 50.3226H14.2581C12.8708 50.3226 11.7419 49.1937 11.7419 47.8064V46.1072C12.4448 46.6398 13.3103 46.9677 14.2581 46.9677H37.7419C38.6897 46.9677 39.5552 46.6398 40.2581 46.1072V47.8064ZM50.3226 34.3871C50.3226 34.8501 49.946 35.2258 49.4839 35.2258H34.3871C33.925 35.2258 33.5484 34.8501 33.5484 34.3871V27.6774C33.5484 27.2145 33.925 26.8387 34.3871 26.8387H36.9032V23.9703C36.9032 23.6172 37.3251 23.374 37.6312 23.5476L43.3898 26.8387H49.4839C49.946 26.8387 50.3226 27.2145 50.3226 27.6774V34.3871Z" fill="#1F2428"/>
<path d="M13.4194 30.1935H25.1613V31.871H13.4194V30.1935Z" fill="#1F2428"/>
<path d="M26.8387 30.1935H28.5161V31.871H26.8387V30.1935Z" fill="#1F2428"/>
<path d="M13.4194 33.5484H28.5161V35.2258H13.4194V33.5484Z" fill="#1F2428"/>
<path d="M3.35484 15.0968H5.03226V16.7742H3.35484V15.0968Z" fill="#1F2428"/>
<path d="M6.70967 15.0968H16.7742V16.7742H6.70967V15.0968Z" fill="#1F2428"/>
<path d="M3.35484 18.4516H16.7742V20.129H3.35484V18.4516Z" fill="#1F2428"/>
</svg>
