<svg width="46" height="46" viewBox="0 0 46 46" fill="none" xmlns="http://www.w3.org/2000/svg">
<circle cx="23" cy="23" r="22.25" fill="white" stroke="#675DA9" stroke-width="1.5"/>
<path d="M31.7896 14.178C31.2358 13.6688 28.9936 12.0386 23.9957 12.0163C23.9957 12.0163 18.1045 11.6589 15.2325 14.2941C13.6336 15.8931 13.0708 18.2291 13.0127 21.1323C12.9547 24.031 12.8787 29.4666 18.1179 30.9406H18.1223L18.1179 33.1872C18.1179 33.1872 18.0866 34.0983 18.6851 34.2815C19.4087 34.5048 19.8374 33.8125 20.5297 33.0666C20.9094 32.6557 21.432 32.0572 21.8295 31.5971C25.4116 31.8964 28.1673 31.2086 28.48 31.1058C29.2036 30.8691 33.2993 30.3465 33.9648 24.9109C34.6526 19.3189 33.6298 15.777 31.7896 14.178ZM32.3971 24.5178C31.8343 29.0557 28.5157 29.3416 27.9038 29.5381C27.6448 29.623 25.224 30.2259 22.1779 30.0249C22.1779 30.0249 19.9089 32.7629 19.2032 33.473C19.0915 33.5847 18.962 33.6294 18.8772 33.607C18.7566 33.5758 18.7208 33.4328 18.7253 33.2229C18.7253 32.9192 18.7432 29.4845 18.7432 29.4845C18.7387 29.4845 18.7387 29.4845 18.7432 29.4845C14.308 28.2562 14.567 23.629 14.6162 21.2082C14.6653 18.7874 15.1209 16.7998 16.4742 15.4644C18.8995 13.2669 23.9064 13.5929 23.9064 13.5929C28.1316 13.6108 30.1549 14.8837 30.6239 15.308C32.1827 16.648 32.9777 19.8415 32.3971 24.5178Z" fill="#675DA9"/>
<path d="M26.0548 21.2931C25.9074 21.2931 25.7823 21.177 25.7734 21.0251C25.7242 20.0648 25.2731 19.5958 24.353 19.5467C24.1967 19.5378 24.0761 19.4038 24.0851 19.2475C24.094 19.0911 24.228 18.9705 24.3843 18.9795C25.5992 19.0465 26.2781 19.7432 26.3406 20.9938C26.3495 21.1502 26.229 21.2842 26.0726 21.2886C26.0637 21.2931 26.0592 21.2931 26.0548 21.2931Z" fill="#675DA9"/>
<path d="M27.5019 21.7756H27.4974C27.3411 21.7712 27.216 21.6417 27.2205 21.4853C27.2428 20.5206 26.9659 19.7389 26.3763 19.0958C25.7912 18.4526 24.9828 18.1042 23.9153 18.0283C23.759 18.0149 23.6429 17.8809 23.6563 17.7246C23.6697 17.5683 23.8037 17.4521 23.96 17.4655C25.1659 17.5549 26.1173 17.9747 26.7962 18.7161C27.4795 19.462 27.8101 20.3955 27.7877 21.4987C27.7833 21.6551 27.6537 21.7756 27.5019 21.7756Z" fill="#675DA9"/>
<path d="M28.9847 22.3563C28.8284 22.3563 28.7033 22.2312 28.7033 22.0749C28.6899 20.3464 28.1941 19.0288 27.1847 18.0417C26.1887 17.068 24.9247 16.5722 23.4374 16.5588C23.2811 16.5588 23.156 16.4293 23.156 16.273C23.156 16.1166 23.2855 15.9916 23.4374 15.9916C25.0766 16.005 26.4701 16.5543 27.5733 17.6352C28.681 18.7161 29.2482 20.2079 29.2661 22.0659C29.2706 22.2267 29.1455 22.3563 28.9847 22.3563C28.9892 22.3563 28.9892 22.3563 28.9847 22.3563Z" fill="#675DA9"/>
<path d="M24.42 24.7904C24.42 24.7904 24.8175 24.8261 25.0319 24.5626L25.4473 24.04C25.6483 23.781 26.1351 23.6157 26.6086 23.8792C26.8721 24.0266 27.35 24.3214 27.6448 24.5403C27.9619 24.7725 28.6051 25.3085 28.6095 25.313C28.9177 25.572 28.9892 25.9517 28.7793 26.3581C28.7793 26.3581 28.7793 26.3626 28.7793 26.367C28.5649 26.7467 28.2746 27.104 27.9128 27.4345C27.9083 27.4345 27.9083 27.439 27.9038 27.439C27.6046 27.6891 27.3098 27.832 27.0239 27.8633C26.9882 27.8722 26.948 27.8722 26.8944 27.8722C26.7694 27.8722 26.6443 27.8544 26.5192 27.8142L26.5103 27.8008C26.0637 27.6757 25.3222 27.3631 24.0895 26.6797C23.2855 26.2375 22.62 25.7864 22.0528 25.3353C21.7536 25.0986 21.4498 24.8351 21.1372 24.5224C21.1282 24.5135 21.1149 24.5001 21.1059 24.4911C21.097 24.4822 21.0836 24.4688 21.0747 24.4599C21.0657 24.4509 21.0523 24.4375 21.0434 24.4286C21.0345 24.4197 21.0211 24.4063 21.0121 24.3973C20.7039 24.0847 20.436 23.781 20.1992 23.4817C19.7481 22.9189 19.297 22.249 18.8548 21.445C18.1715 20.2078 17.8588 19.4664 17.7338 19.0242L17.7204 19.0153C17.6802 18.8902 17.6623 18.7652 17.6623 18.6401C17.6623 18.5865 17.6623 18.5463 17.6712 18.5106C17.707 18.2203 17.8499 17.9299 18.0955 17.6307C18.0955 17.6262 18.1 17.6262 18.1 17.6217C18.4305 17.2555 18.7878 16.9696 19.1675 16.7553C19.1675 16.7553 19.1719 16.7553 19.1764 16.7553C19.5784 16.5453 19.958 16.6168 20.2216 16.925C20.2216 16.925 20.762 17.5726 20.9943 17.8897C21.2131 18.189 21.5079 18.6624 21.6553 18.9259C21.9188 19.3994 21.7536 19.8862 21.4945 20.0872L20.9719 20.5026C20.7084 20.717 20.7441 21.1145 20.7441 21.1145C20.7441 21.1145 21.5168 24.0534 24.42 24.7904Z" fill="#675DA9"/>
</svg>
